Coordinates
version=1
nRows=4
nColumns=107
inDegrees=yes

Units are S.I. units (second, meters, Newtons, ...)
If the header above contains a line with 'inDegrees', this indicates whether rotational values are in degrees (yes) or radians (no).

endheader
time	sternoclavicular_r2	sternoclavicular_r3	unrotscap_r3	unrotscap_r2	acromioclavicular_r2	acromioclavicular_r3	acromioclavicular_r1	unrothum_r1	unrothum_r3	unrothum_r2	elv_angle	shoulder_elv	shoulder1_r2	shoulder_rot	elbow_flexion	pro_sup	deviation	flexion	proximal_distal_r1	proximal_distal_r3	cmc_flexion	cmc_abduction	mp_flexion	ip_flexion	mcp2_flexion	mcp2_abduction	pm2_flexion	md2_flexion	mcp3_flexion	mcp3_abduction	pm3_flexion	md3_flexion	mcp4_flexion	mcp4_abduction	pm4_flexion	md4_flexion	mcp5_flexion	mcp5_abduction	pm5_flexion	md5_flexion	bicpt_tx	bicpt_ty	bicpt_tz	bicpt2_tx	bicpt2_ty	bicpt2_tz	ptpt_tx	ptpt_ty	ptpt_tz	FCUpt_tx	FCUpt_ty	FCUpt_tz	EDCpt_tx	EDCpt_ty	EDCpt_tz	APLpt_tx	APLpt_ty	APLpt_tz	FPLpt_tx	FPLpt_ty	FPLpt_tz	FPLpt2_tx	FPLpt2_ty	FPLpt2_tz	PEC1pt2_tx	PEC1pt2_ty	PEC1pt2_tz	PEC1pt3_tx	PEC1pt3_ty	PEC1pt3_tz	PEC2pt2_tx	PEC2pt2_ty	PEC2pt2_tz	PEC2pt3_tx	PEC2pt3_ty	PEC2pt3_tz	PEC3pt2_tx	PEC3pt2_ty	PEC3pt2_tz	PEC3pt3_tx	PEC3pt3_ty	PEC3pt3_tz	DELT2pt2a_tx	DELT2pt2a_ty	DELT2pt2a_tz	DELT2pt2_tx	DELT2pt2_ty	DELT2pt2_tz	LAT1pt2_tx	LAT1pt2_ty	LAT1pt2_tz	LAT1pt3_tx	LAT1pt3_ty	LAT1pt3_tz	LAT2pt2_tx	LAT2pt2_ty	LAT2pt2_tz	LAT2pt3_tx	LAT2pt3_ty	LAT2pt3_tz	LAT3pt2_tx	LAT3pt2_ty	LAT3pt2_tz	LAT3pt3_tx	LAT3pt3_ty	LAT3pt3_tz
      0.90000000	     -0.33334551	      0.14118942	     -0.14118942	      0.33334551	     -0.06749568	      0.54547638	      0.24518788	     -0.24518788	     -0.54547638	      0.06749568	     97.54206628	     78.92251185	     -1.70243022	    -12.38352880	     28.09084287	     28.17257401	      0.16194253	     -0.04587021	      0.19831315	     -0.02293511	     35.86602634	     -0.48934757	      8.10317896	      5.42089910	     -2.59331699	     13.74985723	      7.07969116	    -36.64605788	    -17.62674887	     -0.19613072	      6.84243240	     12.02646297	    -20.12869809	     -6.74175702	    -12.47165220	     22.61113606	    -36.36595949	    -14.21704319	     -6.28428818	      4.96559093	      0.00082916	     -0.03081964	     -0.00481860	      0.01639230	     -0.01783102	     -0.00863456	      0.00546836	     -0.06624602	     -0.00231945	      0.00661105	     -0.18372124	     -0.00024978	     -0.00338070	      0.00092070	      0.00019342	      0.00004517	      0.00001807	      0.00009034	      0.00005782	      0.00017345	      0.00009757	     -0.00001285	     -0.00018200	     -0.00021840	      0.00258691	      0.00907610	      0.00631381	     -0.00846225	      0.02043218	     -0.01937988	      0.00258691	      0.00907610	      0.00631381	      0.00057000	      0.01894142	     -0.00995301	      0.00405086	      0.00504710	      0.01621367	      0.00000000	      0.00833448	      0.00000000	     -0.00740995	     -0.03424363	     -0.00687510	      0.00899318	     -0.00021037	     -0.00113920	     -0.00092076	      0.01543375	     -0.00631381	      0.00254306	      0.02227371	     -0.01841527	     -0.00618227	      0.01337299	     -0.00565612	     -0.01289069	      0.02823674	     -0.03161288	     -0.02420292	      0.01495144	     -0.00758534	     -0.01604759	      0.03262133	     -0.03950514
      0.93333333	     -0.33006483	      0.13979988	     -0.13979988	      0.33006483	     -0.06683141	      0.54010798	      0.24277482	     -0.24277482	     -0.54010798	      0.06683141	     98.03742028	     78.14578208	     -1.71107577	    -15.86072080	     28.41404467	     32.03733297	      0.16797622	     -0.02404953	      0.20487237	     -0.01202476	     35.72775294	     -1.47102603	      5.24206035	      8.70651907	     -1.58025262	     13.59372250	      7.10234202	    -34.34442541	    -16.37816982	     -0.24433630	      7.96692296	     11.02878902	    -18.63243956	     -6.95570378	    -11.31658055	     19.47020000	    -33.58235059	    -14.20731506	     -7.31363212	      5.01261551	      0.00083985	     -0.03085668	     -0.00482457	      0.01648701	     -0.01791881	     -0.00827561	      0.00518280	     -0.06643067	     -0.00263078	      0.00698835	     -0.18365170	     -0.00030602	     -0.00384447	      0.00106612	      0.00018640	      0.00002412	      0.00000965	      0.00004824	      0.00003088	      0.00009263	      0.00005210	     -0.00001284	     -0.00018405	     -0.00022086	      0.00256145	      0.00898677	      0.00625167	     -0.00837897	      0.02023109	     -0.01918915	      0.00256145	      0.00898677	      0.00625167	      0.00056439	      0.01875500	     -0.00985506	      0.00402213	      0.00499743	      0.01614612	      0.00000000	      0.00817001	      0.00000000	     -0.00733703	     -0.03390662	     -0.00673865	      0.01127309	     -0.00030835	     -0.00200090	     -0.00091170	      0.01528185	     -0.00625167	      0.00251803	      0.02205449	     -0.01823403	     -0.00612142	      0.01324138	     -0.00560045	     -0.01276382	      0.02795885	     -0.03130175	     -0.02396473	      0.01480430	     -0.00751068	     -0.01588966	      0.03230028	     -0.03911634
      0.96666667	     -0.32813268	      0.13898152	     -0.13898152	      0.32813268	     -0.06644019	      0.53694628	      0.24135366	     -0.24135366	     -0.53694628	      0.06644019	     98.39244820	     77.68832969	     -1.71727218	    -17.97071004	     28.48744043	     34.52592232	      0.16641656	     -0.03061985	      0.20318307	     -0.01530992	     34.97088155	     -3.75842786	      6.89898212	      6.22128009	     -1.23228585	     13.37173686	      8.35382744	    -35.17849045	    -15.16568218	     -0.43976866	      8.54010245	     13.28708476	    -17.29668478	     -7.25182725	    -10.87064299	     23.17332264	    -31.80880434	    -14.23083420	     -5.45300726	      4.97842826	      0.00084228	     -0.03086510	     -0.00482592	      0.01653023	     -0.01793875	     -0.00803359	      0.00499892	     -0.06654957	     -0.00283125	      0.00723369	     -0.18360472	     -0.00033638	     -0.00414310	      0.00116214	      0.00017768	      0.00003055	      0.00001222	      0.00006110	      0.00003910	      0.00011730	      0.00006598	     -0.00001273	     -0.00019491	     -0.00023389	      0.00254645	      0.00893417	      0.00621507	     -0.00832992	      0.02011266	     -0.01907682	      0.00254645	      0.00893417	      0.00621507	      0.00056108	      0.01864521	     -0.00979737	      0.00400511	      0.00496818	      0.01610568	      0.00000000	      0.00807393	      0.00000000	     -0.00729408	     -0.03370813	     -0.00665892	      0.01257772	     -0.00037044	     -0.00262675	     -0.00090636	      0.01519240	     -0.00621507	      0.00250329	      0.02192539	     -0.01812729	     -0.00608559	      0.01316387	     -0.00556767	     -0.01268910	      0.02779518	     -0.03111852	     -0.02382444	      0.01471763	     -0.00746672	     -0.01579664	      0.03211120	     -0.03888736
      1.00000000	     -0.32785925	      0.13886570	     -0.13886570	      0.32785925	     -0.06638483	      0.53649884	      0.24115254	     -0.24115254	     -0.53649884	      0.06638483	     98.37556853	     77.62359198	     -1.71697757	    -18.09865366	     28.70905303	     35.64857724	      0.19457580	     -0.00847074	      0.23307921	     -0.00423537	     34.65912861	     -5.42903446	      5.72762542	      7.98258068	      0.14938520	     13.19854135	      9.12892945	    -33.49579499	    -12.72167814	     -0.14418501	      9.46898177	     12.76677586	    -14.66302582	     -7.00255548	     -9.15933837	     21.78561267	    -27.98683131	    -14.21655590	     -5.13364625	      4.96608177	      0.00084961	     -0.03089050	     -0.00483001	      0.01654463	     -0.01799896	     -0.00792128	      0.00491597	     -0.06660321	     -0.00292168	      0.00734506	     -0.18358290	     -0.00034840	     -0.00427782	      0.00120615	      0.00017253	      0.00000861	      0.00000344	      0.00001722	      0.00001102	      0.00003307	      0.00001860	     -0.00001262	     -0.00019912	     -0.00023894	      0.00254433	      0.00892672	      0.00620989	     -0.00832298	      0.02009590	     -0.01906092	      0.00254433	      0.00892672	      0.00620989	      0.00056062	      0.01862968	     -0.00978921	      0.00400269	      0.00496404	      0.01609992	      0.00000000	      0.00806038	      0.00000000	     -0.00728800	     -0.03368004	     -0.00664768	      0.01265490	     -0.00037427	     -0.00266712	     -0.00090561	      0.01517974	     -0.00620989	      0.00250121	      0.02190712	     -0.01811219	     -0.00608052	      0.01315290	     -0.00556303	     -0.01267853	      0.02777202	     -0.03109259	     -0.02380459	      0.01470537	     -0.00746050	     -0.01578348	      0.03208445	     -0.03885495
